<?xml version="1.0" encoding="utf-8"?>
<!-- Generator: Adobe Illustrator 27.2.0, SVG Export Plug-In . SVG Version: 6.00 Build 0)  -->
<svg version="1.1" id="Layer_1" xmlns="http://www.w3.org/2000/svg" xmlns:xlink="http://www.w3.org/1999/xlink" x="0px" y="0px"
	 viewBox="0 0 210 59" width="210px" height="59px" style="enable-background:new 0 0 210 59;" xml:space="preserve">
<style type="text/css">
	.st0{fill:#4A4646;}
	.st1{fill:#E11F26;}
	.st2{fill:#E22A26;}
</style>
<g>
	<path class="st0" d="M14.5,15.5c3.7,0,7.1,1.5,9.5,3.9c2.5,2.5,4,5.8,4,9.4c0,3.6-1.5,7-4,9.4c-2.5,2.4-5.8,3.9-9.5,3.9
		c-3.7,0-7.1-1.5-9.5-3.9c-2.5-2.5-4-5.8-4-9.4c0-3.6,1.5-7,4-9.4C7.4,17,10.7,15.5,14.5,15.5 M22.7,20.7c-2.1-2-5-3.3-8.2-3.3
		s-6.1,1.3-8.2,3.3s-3.4,4.9-3.4,8s1.3,6,3.4,8c2.1,2,5,3.3,8.2,3.3c3.2,0,6.1-1.3,8.2-3.3c2.1-2,3.4-4.9,3.4-8
		C26.2,25.6,24.9,22.7,22.7,20.7"/>
	<path class="st1" d="M10.5,19.3c-1.3,0.5-2.5,1.3-3.4,2.2c-0.3,0.3-0.6,0.6-0.9,1h2.6C9.3,21.5,9.9,20.4,10.5,19.3 M18.6,19.3
		c1.3,0.5,2.5,1.3,3.3,2.2c0.3,0.3,0.6,0.6,0.9,1h-2.6C19.7,21.5,19.2,20.4,18.6,19.3 M15.1,18.6v4h3.4C18,21.3,17.1,19.4,15.1,18.6
		 M15.1,24h4c0.4,1.3,0.6,2.7,0.6,4H15v-4C15,24,15.1,24,15.1,24z M18.9,33.4h-3.7v-3.9h4.6C19.6,30.9,19.4,32.2,18.9,33.4 M15.1,39
		v-4.1h3.2C17.9,36.5,17.1,37.6,15.1,39 M22.8,34.9h-2.9c-0.4,1.1-1.1,2.2-1.7,3.3c1.4-0.5,2.7-1.3,3.6-2.4
		C22.2,35.7,22.5,35.4,22.8,34.9 M24.9,29.6c-0.1,1.4-0.5,2.8-1.2,4h-3.3c0.4-1.3,0.6-2.7,0.8-4C21.1,29.6,24.9,29.6,24.9,29.6z
		 M23.8,24c0.6,1.2,1.1,2.6,1.2,4h-3.6c0-1.4-0.2-2.7-0.6-4C20.7,24,23.8,24,23.8,24z M14,18.6v4h-3.4C11.1,21.3,11.9,19.4,14,18.6
		 M14,24H9.9c-0.4,1.4-0.6,2.7-0.6,4.1H14V24z M10.1,33.4h3.7v-3.9H9.2C9.3,30.9,9.7,32.2,10.1,33.4 M14,39v-4.1h-3.2
		C11.2,36.5,11.9,37.6,14,39 M6.2,34.9h2.9c0.4,1.1,1.1,2.2,1.7,3.3C9.5,37.8,8.2,37,7.1,36C6.8,35.7,6.6,35.4,6.2,34.9 M4.1,29.6
		c0.1,1.4,0.5,2.8,1.2,4h3.3c-0.4-1.4-0.8-2.7-0.9-4C7.7,29.6,4.1,29.6,4.1,29.6z M5.3,24c-0.6,1.2-1.1,2.6-1.2,4h3.6
		c0-1.4,0.2-2.7,0.6-4C8.4,24,5.3,24,5.3,24z"/>
	<rect x="29.2" y="5.1" class="st0" width="2.7" height="37.2"/>
	<polygon class="st2" points="25.8,3.9 30.5,0.2 35.1,3.9 	"/>
	<path class="st0" d="M48.3,20.3c2.7,0,4.9,0.9,6.6,2.6c1.7,1.7,2.6,3.9,2.6,6.5V33c0,2.7-0.9,4.9-2.6,6.5c-1.7,1.7-4,2.6-6.6,2.6
		h-9.8v-2.7l2.4-0.4V23.4L38.5,23v-2.7h2.4C40.8,20.3,48.3,20.3,48.3,20.3z M45.1,23.7v15.1H48c1.6,0,2.8-0.5,3.6-1.6
		c0.9-1.1,1.3-2.5,1.3-4.2v-3.6c0-1.7-0.4-3.1-1.3-4.2c-0.9-1.1-2.1-1.6-3.6-1.6h-2.9V23.7z"/>
	<path class="st0" d="M59.1,39.5l1.6-0.2l6.6-18.9h4.5l6.5,18.8l1.6,0.2v2.7h-7.4v-2.7l1.5-0.3l-1-3H66l-1,3.1l1.5,0.3v2.7H59v-2.7
		H59.1z M67,33h5l-2.5-7.7h-0.1L67,33z"/>
	<polygon class="st0" points="103.1,26 103,26 97.1,42.1 94.2,42.1 88.3,26.1 88.2,26.1 88.7,35.6 88.7,39 91,39.5 91,42.1 82,42.1 
		82,39.5 84.3,39 84.3,23.4 82,23 82,20.3 84.3,20.3 90.1,20.3 95.6,36.3 95.7,36.3 101.3,20.3 109.4,20.3 109.4,23 107.1,23.4 
		107.1,39 109.4,39.5 109.4,42.1 100.3,42.1 100.3,39.5 102.7,39 102.7,35.6 	"/>
	<path class="st0" d="M129.4,27.7h-3.2l-0.4-2.9c-0.4-0.4-1-0.8-1.6-1.1c-0.6-0.2-1.4-0.3-2.4-0.3c-1.9,0-3.3,0.6-4.4,2
		c-1.1,1.4-1.5,3.2-1.5,5.4v0.8c0,2.2,0.5,4.1,1.5,5.5c1.1,1.4,2.5,2.1,4.3,2.1c0.9,0,1.6-0.1,2.4-0.4c0.7-0.2,1.3-0.5,1.7-1.1
		l0.4-2.9h3.2V39c-0.9,1.1-2,1.8-3.4,2.5c-1.4,0.6-2.9,0.9-4.6,0.9c-2.9,0-5.4-1-7.2-3c-1.8-2-2.8-4.6-2.8-7.8v-0.8
		c0-3.2,1-5.8,2.8-7.8c1.8-2,4.3-3.1,7.2-3.1c1.7,0,3.2,0.3,4.6,1s2.5,1.4,3.4,2.5V27.7z"/>
	<path class="st0" d="M152,31.4c0,3.2-1,5.9-2.8,7.9c-1.8,2.1-4.2,3.1-7.2,3.1c-3,0-5.4-1.1-7.2-3.1c-1.8-2.1-2.7-4.7-2.7-7.9v-0.3
		c0-3.2,0.9-5.8,2.7-7.9c1.8-2.1,4.2-3.1,7.2-3.1c3,0,5.4,1.1,7.2,3.1c1.8,2.1,2.8,4.7,2.8,7.9V31.4z M147.6,31
		c0-2.2-0.4-4.1-1.4-5.5c-1-1.4-2.4-2.1-4.2-2.1c-1.8,0-3.2,0.7-4.1,2.1c-0.9,1.4-1.4,3.2-1.4,5.6v0.3c0,2.2,0.4,4.2,1.4,5.6
		c1,1.4,2.2,2.1,4.1,2.1c1.8,0,3.2-0.7,4.2-2.1c1-1.4,1.4-3.2,1.4-5.6V31z"/>
	<polygon class="st0" points="6.2,52.6 2.9,52.6 2.9,56 6.8,56 6.9,54.9 7.4,54.9 7.4,56.6 1.4,56.6 1.4,56.1 2.3,56 2.3,49.1 
		1.4,49 1.4,48.4 2.3,48.4 7.4,48.4 7.4,50.2 6.8,50.2 6.8,49.1 2.9,49.1 2.9,52.1 6.2,52.1 	"/>
	<path class="st0" d="M9,56.1l1-0.1v-4.9L9,51v-0.5h1.5l0.1,1.1c0.2-0.3,0.4-0.6,0.8-0.9c0.3-0.2,0.7-0.3,1.2-0.3
		c0.6,0,1.2,0.2,1.5,0.6c0.3,0.4,0.5,1.1,0.5,1.8v3.1l0.9,0.1v0.5H13V56l1-0.1v-3.1c0-0.6-0.1-1.2-0.4-1.5c-0.2-0.3-0.6-0.4-1.1-0.4
		s-0.9,0.1-1.2,0.4c-0.3,0.2-0.5,0.5-0.6,1v3.6l1,0.1v0.5H9L9,56.1L9,56.1z"/>
	<path class="st0" d="M21.2,52.4h-0.5l-0.1-0.9c-0.2-0.2-0.4-0.3-0.6-0.4C19.7,51,19.4,51,19.1,51c-0.5,0-0.9,0.1-1.1,0.3
		s-0.3,0.4-0.3,0.7c0,0.3,0.1,0.5,0.3,0.6c0.2,0.2,0.6,0.3,1.3,0.4c0.8,0.2,1.3,0.4,1.6,0.6c0.3,0.3,0.5,0.6,0.5,1.2
		c0,0.5-0.2,1-0.6,1.2c-0.4,0.3-1,0.4-1.6,0.4c-0.4,0-0.9-0.1-1.2-0.2c-0.3-0.1-0.6-0.3-1-0.5v-1.2h0.5l0.1,0.9
		c0.2,0.2,0.4,0.3,0.6,0.4c0.3,0.1,0.5,0.1,0.9,0.1c0.5,0,0.9-0.1,1.2-0.3c0.3-0.2,0.4-0.4,0.4-0.7c0-0.3-0.1-0.5-0.3-0.8
		s-0.6-0.4-1.3-0.5c-0.8-0.1-1.3-0.3-1.6-0.6c-0.3-0.2-0.5-0.6-0.5-1.1s0.2-0.9,0.5-1.2c0.4-0.3,0.9-0.4,1.5-0.4
		c0.4,0,0.9,0.1,1.2,0.2s0.6,0.3,0.9,0.5L21.2,52.4z"/>
	<path class="st0" d="M27.4,55.6c-0.2,0.3-0.4,0.6-0.7,0.9s-0.8,0.3-1.2,0.3c-0.6,0-1.2-0.2-1.5-0.6s-0.5-1.1-0.5-2v-2.9L22.7,51
		v-0.5h0.7h0.6V54c0,0.7,0.1,1.3,0.4,1.6c0.2,0.3,0.6,0.5,1.1,0.5c0.5,0,0.9-0.1,1.2-0.3c0.3-0.2,0.5-0.5,0.6-1v-3.7L26.6,51v-0.5
		h0.9h0.6v5.5l0.9,0.1v0.5h-1.4L27.4,55.6z"/>
	<path class="st0" d="M31.7,50.6l0.1,1v0.1c0.2-0.3,0.4-0.6,0.8-0.9c0.3-0.2,0.6-0.3,1.1-0.3c0.1,0,0.2,0,0.2,0c0.1,0,0.1,0,0.2,0
		L34,51.1h-0.5c-0.4,0-0.7,0.1-1.1,0.3c-0.2,0.2-0.4,0.5-0.5,1V56l1,0.1v0.5h-2.5v-0.5l0.9-0.1v-4.9l-1-0.1v-0.5h0.9h0.6
		C31.7,50.5,31.7,50.6,31.7,50.6z"/>
	<path class="st0" d="M35.3,56.1l1-0.1v-4.9l-1-0.1v-0.5h1.6v5.5l0.9,0.1v0.5h-2.5C35.3,56.6,35.3,56.1,35.3,56.1z M36.9,48.9h-0.6
		v-1h0.6V48.9z"/>
	<path class="st0" d="M39.1,56.1l1-0.1v-4.9l-1-0.1v-0.5h1.5l0.1,1.1c0.2-0.3,0.4-0.6,0.8-0.9c0.3-0.2,0.7-0.3,1.2-0.3
		c0.6,0,1.2,0.2,1.5,0.6c0.3,0.4,0.5,1.1,0.5,1.8v3.1l1,0.1v0.5h-2.5V56l0.9-0.1v-3.1c0-0.6-0.1-1.2-0.4-1.5
		c-0.2-0.3-0.6-0.4-1.1-0.4c-0.4,0-0.9,0.1-1.2,0.4c-0.3,0.2-0.5,0.5-0.6,1v3.6l0.9,0.1v0.5h-2.5V56.1z"/>
	<path class="st0" d="M47,53.6c0-1,0.2-1.7,0.6-2.4c0.4-0.5,1-0.9,1.7-0.9c0.4,0,0.8,0.1,1.1,0.3c0.3,0.2,0.5,0.4,0.8,0.7l0.1-1h0.5
		v6c0,0.8-0.2,1.4-0.6,1.8c-0.4,0.4-1,0.6-1.7,0.6c-0.3,0-0.6,0-1-0.1c-0.3-0.1-0.6-0.2-0.9-0.3l0.2-0.5c0.2,0.1,0.5,0.2,0.8,0.3
		c0.2,0.1,0.5,0.1,0.9,0.1c0.5,0,1-0.2,1.3-0.5s0.4-0.9,0.4-1.4v-0.7c-0.2,0.3-0.4,0.5-0.8,0.7c-0.3,0.2-0.6,0.2-1.1,0.2
		c-0.7,0-1.3-0.3-1.7-0.9S47,54.5,47,53.7L47,53.6L47,53.6z M47.7,53.8c0,0.7,0.1,1.3,0.4,1.7c0.3,0.4,0.7,0.6,1.3,0.6
		c0.4,0,0.8-0.1,1.1-0.3c0.3-0.2,0.5-0.4,0.6-0.9v-2.8c-0.1-0.3-0.3-0.6-0.6-0.9c-0.3-0.2-0.6-0.3-1.1-0.3c-0.6,0-1.1,0.2-1.3,0.7
		c-0.3,0.5-0.4,1.1-0.4,1.9V53.8z"/>
	<path class="st0" d="M62.5,50.9H62l-0.1-1.2c-0.2-0.2-0.4-0.4-0.9-0.6c-0.3-0.1-0.8-0.2-1.2-0.2c-0.6,0-1.2,0.1-1.6,0.4
		c-0.3,0.3-0.5,0.6-0.5,1.1s0.2,0.8,0.5,1.1c0.3,0.3,1,0.5,1.7,0.7c0.9,0.2,1.5,0.5,2,0.9c0.4,0.4,0.6,0.9,0.6,1.5
		c0,0.6-0.2,1.2-0.8,1.5c-0.5,0.4-1.2,0.5-2,0.5c-0.5,0-1.1-0.1-1.6-0.3s-0.9-0.5-1.2-0.9V54h0.5l0.1,1.2c0.2,0.3,0.5,0.5,1,0.6
		c0.4,0.1,0.7,0.2,1.3,0.2c0.6,0,1.2-0.1,1.5-0.4c0.4-0.3,0.6-0.6,0.6-1.1c0-0.4-0.2-0.7-0.5-1.1c-0.3-0.3-0.9-0.5-1.7-0.7
		c-0.9-0.2-1.6-0.5-2-0.9c-0.4-0.3-0.6-0.9-0.6-1.5c0-0.6,0.2-1.2,0.7-1.5c0.5-0.4,1.2-0.5,2-0.5c0.6,0,1.1,0.1,1.6,0.3
		c0.4,0.2,0.9,0.5,1.1,0.9v1.4H62.5z"/>
	<path class="st0" d="M68.6,55.6c-0.2,0.3-0.4,0.6-0.8,0.9c-0.3,0.2-0.7,0.3-1.2,0.3c-0.6,0-1.2-0.2-1.5-0.6c-0.3-0.4-0.5-1.1-0.5-2
		v-2.9L63.9,51v-0.5h0.7h0.6V54c0,0.7,0.1,1.3,0.4,1.6c0.2,0.3,0.6,0.5,1.1,0.5c0.5,0,0.9-0.1,1.2-0.3c0.3-0.2,0.5-0.5,0.6-1v-3.7
		L67.8,51v-0.5h0.9h0.6v5.5l0.9,0.1v0.5h-1.4L68.6,55.6z"/>
	<path class="st0" d="M74.1,56.1c0.4,0,0.9-0.1,1.2-0.4c0.3-0.2,0.5-0.6,0.5-1.1h0.6l0,0c0,0.5-0.2,1.1-0.6,1.4
		c-0.4,0.3-1,0.5-1.6,0.5c-0.9,0-1.5-0.3-1.9-0.9c-0.4-0.5-0.6-1.3-0.6-2.1v-0.2c0-0.9,0.2-1.6,0.6-2.1c0.4-0.5,1.1-0.9,1.9-0.9
		c0.4,0,0.9,0.1,1.3,0.2c0.4,0.2,0.8,0.4,1,0.8v1.3h-0.5l-0.1-1.1c-0.2-0.2-0.4-0.3-0.6-0.4c-0.2-0.1-0.5-0.2-0.9-0.2
		c-0.6,0-1.2,0.2-1.4,0.6c-0.3,0.4-0.4,1.1-0.4,1.7v0.2c0,0.7,0.1,1.3,0.4,1.7C72.9,55.9,73.5,56.1,74.1,56.1"/>
	<path class="st0" d="M80.6,56.1c0.4,0,0.9-0.1,1.2-0.4c0.3-0.2,0.5-0.6,0.5-1.1H83l0,0c0,0.5-0.2,1.1-0.6,1.4
		c-0.4,0.3-1,0.5-1.6,0.5c-0.9,0-1.5-0.3-1.9-0.9c-0.4-0.5-0.6-1.3-0.6-2.1v-0.2c0-0.9,0.2-1.6,0.6-2.1s1.1-0.9,1.9-0.9
		c0.4,0,0.9,0.1,1.3,0.2c0.4,0.2,0.7,0.4,1,0.8v1.3h-0.5l-0.1-1.1c-0.2-0.2-0.4-0.3-0.6-0.4c-0.4,0-0.8-0.1-1.1-0.1
		c-0.6,0-1.2,0.2-1.4,0.6c-0.3,0.4-0.4,1.1-0.4,1.7v0.2c0,0.7,0.1,1.3,0.4,1.7C79.5,55.9,80,56.1,80.6,56.1"/>
	<path class="st0" d="M87.2,56.7c-0.7,0-1.4-0.3-1.9-0.9c-0.5-0.5-0.7-1.3-0.7-2.1v-0.3c0-0.9,0.2-1.6,0.7-2.1
		c0.5-0.5,1.1-0.9,1.8-0.9c0.8,0,1.3,0.2,1.7,0.8c0.4,0.4,0.6,1.1,0.6,1.9v0.5h-4.3v0.1c0,0.6,0.2,1.3,0.5,1.7s0.9,0.6,1.4,0.6
		c0.4,0,0.8-0.1,1.1-0.2s0.5-0.3,0.7-0.5l0.3,0.4c-0.2,0.2-0.5,0.4-0.9,0.5C88.1,56.7,87.7,56.7,87.2,56.7 M87.1,51
		c-0.5,0-0.9,0.2-1.3,0.5c-0.3,0.4-0.5,0.9-0.5,1.4l0,0h3.5v-0.2c0-0.5-0.1-1-0.4-1.3C88,51.2,87.6,51,87.1,51"/>
	<path class="st0" d="M95.5,52.4h-0.6v-0.9c-0.2-0.2-0.4-0.3-0.6-0.4C93.9,51,93.7,51,93.4,51c-0.5,0-0.9,0.1-1.1,0.3
		S92,51.7,92,52.1c0,0.3,0.1,0.5,0.3,0.6c0.2,0.2,0.6,0.3,1.3,0.4c0.8,0.2,1.3,0.4,1.6,0.6c0.3,0.3,0.5,0.6,0.5,1.2
		c0,0.5-0.2,1-0.6,1.2c-0.4,0.3-1,0.4-1.6,0.4c-0.4,0-0.9-0.1-1.2-0.2c-0.3-0.1-0.6-0.3-1-0.5v-1.2h0.5l0.1,0.9
		c0.2,0.2,0.4,0.3,0.6,0.4s0.5,0.1,0.9,0.1c0.5,0,0.9-0.1,1.2-0.3c0.3-0.2,0.4-0.4,0.4-0.7c0-0.3-0.1-0.5-0.3-0.8s-0.6-0.4-1.3-0.5
		c-0.7-0.1-1.3-0.3-1.6-0.6c-0.3-0.2-0.5-0.6-0.5-1.1s0.2-0.9,0.5-1.2c0.4-0.3,0.9-0.4,1.5-0.4c0.4,0,0.9,0.1,1.2,0.2
		c0.3,0.1,0.6,0.3,0.9,0.5L95.5,52.4z"/>
	<path class="st0" d="M101.6,52.4h-0.5l-0.1-0.9c-0.2-0.2-0.4-0.3-0.6-0.4c-0.2-0.1-0.5-0.1-0.9-0.1c-0.5,0-0.9,0.1-1.1,0.3
		c-0.2,0.2-0.3,0.4-0.3,0.7c0,0.3,0.1,0.5,0.3,0.6c0.2,0.2,0.6,0.3,1.3,0.4c0.7,0.2,1.3,0.4,1.6,0.6c0.3,0.3,0.5,0.6,0.5,1.2
		c0,0.5-0.2,1-0.6,1.2c-0.4,0.3-1,0.4-1.6,0.4c-0.4,0-0.9-0.1-1.2-0.2c-0.3-0.1-0.6-0.3-1-0.5v-1.2H98l0.1,0.9
		c0.2,0.2,0.4,0.3,0.6,0.4C99,56,99.3,56,99.6,56c0.5,0,0.9-0.1,1.2-0.3c0.3-0.2,0.4-0.4,0.4-0.7c0-0.3-0.1-0.5-0.3-0.8
		c-0.2-0.2-0.6-0.4-1.3-0.5c-0.7-0.1-1.3-0.3-1.6-0.6c-0.3-0.2-0.5-0.6-0.5-1.1s0.2-0.9,0.5-1.2c0.4-0.3,0.9-0.4,1.5-0.4
		c0.4,0,0.9,0.1,1.2,0.2c0.3,0.1,0.6,0.3,0.9,0.5L101.6,52.4z"/>
	<rect x="103.6" y="55.7" class="st0" width="0.7" height="1"/>
	<path class="st0" d="M109.3,56.1h0.6l2.9-7.6h0.6l2.9,7.6h0.6v0.5h-2v-0.5l0.7-0.1l-0.6-1.8h-3.6l-0.6,1.8l0.7,0.1v0.5h-2v-0.5
		H109.3z M111.5,53.6h3.2l-1.6-4.3l0,0L111.5,53.6z"/>
	<polygon class="st0" points="118.1,48.3 118.1,47.9 119.7,47.9 119.7,56 120.6,56.1 120.6,56.6 118.1,56.6 118.1,56.1 119,56 
		119,48.4 	"/>
	<polygon class="st0" points="123.9,51 123.1,51.1 124.1,54.6 124.3,55.7 124.3,55.7 124.6,54.6 125.9,50.6 126.4,50.6 127.7,54.6 
		128.1,55.7 128.1,55.7 128.4,54.6 129.3,51.1 128.5,51 128.5,50.6 130.5,50.6 130.5,51 130,51.1 128.4,56.6 127.8,56.6 126.4,52.5 
		126.2,51.4 126.1,51.4 125.9,52.5 124.5,56.6 124,56.6 122.4,51.1 121.8,51 121.8,50.6 123.9,50.6 	"/>
	<path class="st0" d="M136.1,56.6c0-0.2-0.1-0.4-0.1-0.5s0-0.3,0-0.4c-0.2,0.3-0.5,0.5-0.9,0.7c-0.4,0.2-0.7,0.3-1.3,0.3
		c-0.6,0-1.1-0.1-1.4-0.4c-0.3-0.3-0.5-0.7-0.5-1.3c0-0.5,0.2-1,0.7-1.3c0.4-0.3,1.2-0.5,1.9-0.5h1.3v-0.7c0-0.4-0.1-0.7-0.4-1
		c-0.3-0.2-0.6-0.3-1.2-0.3c-0.3,0-0.6,0-1,0.1c-0.3,0.1-0.5,0.2-0.7,0.4l-0.1,0.9h-0.5v-1.2c0.3-0.2,0.6-0.4,1-0.5
		c0.4-0.1,0.9-0.2,1.3-0.2c0.6,0,1.2,0.2,1.6,0.5c0.4,0.3,0.6,0.9,0.6,1.5v3c0,0.1,0,0.2,0,0.3c0,0.1,0,0.2,0,0.3h0.6v0.5h-1
		L136.1,56.6L136.1,56.6z M133.8,56.1c0.5,0,0.9-0.1,1.3-0.3c0.3-0.2,0.6-0.5,0.9-0.9v-1.2h-1.4c-0.6,0-1.1,0.1-1.5,0.4
		c-0.3,0.2-0.5,0.5-0.5,1c0,0.3,0.1,0.5,0.3,0.7C133.2,56,133.5,56.1,133.8,56.1"/>
	<path class="st0" d="M144.3,51h-0.6l-2.5,6.4c-0.1,0.4-0.3,0.8-0.6,1.1c-0.2,0.3-0.6,0.4-1.1,0.4c-0.1,0-0.2,0-0.3,0
		c-0.1,0-0.2,0-0.2-0.1l0.1-0.5c0,0,0.1,0,0.2,0s0.2,0,0.2,0c0.3,0,0.5-0.1,0.7-0.3s0.3-0.4,0.4-0.8l0.3-0.9l-2.1-5.5h-0.6v-0.5h2
		V51l-0.7,0.1L141,55l0.2,0.7l0,0l1.6-4.6l-0.7-0.1v-0.5h2V51L144.3,51L144.3,51z"/>
	<path class="st0" d="M149.9,52.4h-0.5l-0.1-0.9c-0.2-0.2-0.3-0.3-0.6-0.4c-0.2-0.1-0.5-0.1-0.9-0.1c-0.5,0-0.9,0.1-1.1,0.3
		c-0.2,0.2-0.3,0.4-0.3,0.7c0,0.3,0.1,0.5,0.3,0.6c0.2,0.2,0.6,0.3,1.3,0.4c0.7,0.2,1.3,0.4,1.6,0.6c0.3,0.3,0.5,0.6,0.5,1.2
		c0,0.5-0.2,1-0.6,1.2c-0.4,0.3-1,0.4-1.6,0.4c-0.4,0-0.9-0.1-1.2-0.2c-0.3-0.1-0.6-0.3-1-0.5v-1.2h0.5l0.1,0.9
		c0.2,0.2,0.4,0.3,0.6,0.4c0.3,0.1,0.5,0.1,0.9,0.1c0.5,0,0.9-0.1,1.2-0.3c0.3-0.2,0.4-0.4,0.4-0.7c0-0.3-0.1-0.5-0.3-0.8
		s-0.6-0.4-1.3-0.5c-0.8-0.1-1.3-0.3-1.6-0.6c-0.3-0.2-0.5-0.6-0.5-1.1s0.2-0.9,0.5-1.2c0.4-0.3,1-0.4,1.5-0.4
		c0.4,0,0.9,0.1,1.2,0.2s0.6,0.3,0.9,0.5L149.9,52.4z"/>
</g>
</svg>
